<svg width="16" height="16" viewBox="0 0 16 16" fill="none" xmlns="http://www.w3.org/2000/svg">
<circle cx="8.25" cy="7.75" r="7.5" fill="#EB5D5E"/>
<path d="M11.7497 5.08331H10.4163V4.24998C10.4163 3.88227 10.1174 3.58331 9.74967 3.58331H6.41634C6.04863 3.58331 5.74967 3.88227 5.74967 4.24998V5.08331H4.41634C4.23197 5.08331 4.08301 5.23227 4.08301 5.41665V5.74998C4.08301 5.79581 4.12051 5.83331 4.16634 5.83331H4.79551L5.0528 11.2812C5.06947 11.6364 5.36322 11.9166 5.71842 11.9166H10.4476C10.8038 11.9166 11.0965 11.6375 11.1132 11.2812L11.3705 5.83331H11.9997C12.0455 5.83331 12.083 5.79581 12.083 5.74998V5.41665C12.083 5.23227 11.934 5.08331 11.7497 5.08331ZM9.66634 5.08331H6.49967V4.33331H9.66634V5.08331Z" fill="white"/>
</svg>
