<svg width="30" height="30" viewBox="0 0 30 30" fill="none" xmlns="http://www.w3.org/2000/svg">
<rect width="30" height="30" rx="15" fill="#6B5FCD"/>
<path d="M6.96416 16.7857H8.74987V23.0357C8.74987 23.2725 8.84394 23.4996 9.01138 23.667C9.17883 23.8345 9.40593 23.9285 9.64273 23.9285H20.357C20.5938 23.9285 20.8209 23.8345 20.9884 23.667C21.1558 23.4996 21.2499 23.2725 21.2499 23.0357V16.7857H23.0356C23.2081 16.7858 23.377 16.7359 23.5217 16.6419C23.6664 16.5479 23.7807 16.4139 23.8508 16.2562C23.9213 16.0986 23.9445 15.9239 23.9175 15.7533C23.8906 15.5828 23.8146 15.4237 23.699 15.2955L15.6633 6.36694C15.3249 5.99015 14.6749 5.99015 14.3365 6.36694L6.30076 15.2955C6.18531 15.4238 6.1095 15.5828 6.08252 15.7532C6.05553 15.9237 6.07852 16.0983 6.14871 16.256C6.2189 16.4136 6.33327 16.5476 6.47799 16.6416C6.62271 16.7356 6.79158 16.7856 6.96416 16.7857ZM12.0115 14.6794C12.3831 14.3125 12.8843 14.1068 13.4066 14.1068C13.9288 14.1068 14.43 14.3125 14.8017 14.6794L15.0017 14.8759L15.2008 14.6794C15.5726 14.3125 16.0739 14.1067 16.5963 14.1067C17.1187 14.1067 17.62 14.3125 17.9918 14.6794C18.1763 14.8569 18.323 15.0697 18.4232 15.3052C18.5235 15.5407 18.5751 15.794 18.5751 16.05C18.5751 16.3059 18.5235 16.5592 18.4232 16.7947C18.323 17.0302 18.1763 17.2431 17.9918 17.4205L15.0017 20.3571L12.0115 17.4205C11.827 17.2431 11.6803 17.0302 11.5801 16.7947C11.4798 16.5592 11.4282 16.3059 11.4282 16.05C11.4282 15.794 11.4798 15.5407 11.5801 15.3052C11.6803 15.0697 11.827 14.8569 12.0115 14.6794Z" fill="white"/>
</svg>
