<svg width="266" height="98" viewBox="0 0 266 98" fill="none" xmlns="http://www.w3.org/2000/svg">
<path d="M82.1495 32C81.9629 32 81.8695 31.9067 81.8695 31.72V27.6C81.8695 27.4133 81.9629 27.32 82.1495 27.32H88.7495C89.7095 27.32 90.5095 26.9733 91.1495 26.28C91.8162 25.5867 92.1495 24.76 92.1495 23.8C92.1495 22.84 91.8162 22.04 91.1495 21.4C90.4829 20.7333 89.6829 20.4 88.7495 20.4H83.7095C83.4429 20.4 83.3095 20.2667 83.3095 20V15.84C83.3095 15.7867 83.3362 15.7333 83.3895 15.68C83.4429 15.6 83.5095 15.56 83.5895 15.56H85.8295C86.7362 15.56 87.5095 15.2267 88.1495 14.56C88.8162 13.8933 89.1495 13.1067 89.1495 12.2C89.1495 11.2667 88.8162 10.4667 88.1495 9.8C87.4829 9.13333 86.6829 8.8 85.7495 8.8H82.8695C82.4962 8.8 82.1629 8.93333 81.8695 9.2C81.6029 9.46667 81.4695 9.78667 81.4695 10.16V11.2C81.4695 11.28 81.4295 11.3467 81.3495 11.4C81.2962 11.4533 81.2429 11.48 81.1895 11.48H77.7095C77.4962 11.48 77.3895 11.3867 77.3895 11.2V4.28C77.3895 4.09333 77.4962 4 77.7095 4H85.7495C87.2429 4 88.6162 4.37333 89.8695 5.12C91.1229 5.84 92.1095 6.82666 92.8295 8.08C93.5762 9.33333 93.9495 10.7067 93.9495 12.2C93.9495 13.7467 93.5229 15.2 92.6695 16.56C94.0029 17.3067 95.0562 18.3333 95.8295 19.64C96.6029 20.92 96.9895 22.3067 96.9895 23.8C96.9895 25.2933 96.6162 26.6667 95.8695 27.92C95.1495 29.1733 94.1495 30.1733 92.8695 30.92C91.6162 31.64 90.2429 32 88.7495 32H82.1495ZM106.043 29.08C104.389 27.6667 103.123 25.9867 102.243 24.04C101.363 22.0667 100.923 20.0267 100.923 17.92C100.923 16.2667 101.189 14.6533 101.723 13.08C102.283 11.48 103.109 10.0267 104.203 8.72C105.509 7.12 107.043 5.89333 108.803 5.04C110.563 4.16 112.416 3.66667 114.363 3.56H114.443C114.656 3.56 114.829 3.64 114.963 3.8C115.123 3.96 115.216 4.16 115.243 4.4V7.88C115.243 8.38666 114.963 8.66667 114.403 8.72C113.203 8.82667 112.056 9.17333 110.963 9.76C109.869 10.32 108.949 11.08 108.203 12.04C106.763 13.8 106.043 15.7867 106.043 18C106.043 19.3333 106.323 20.6267 106.883 21.88C107.443 23.1067 108.243 24.16 109.283 25.04C111.043 26.48 113.016 27.2 115.203 27.2C116.536 27.2 117.816 26.92 119.043 26.36C120.269 25.8 121.309 24.9867 122.163 23.92C122.883 23.0667 123.416 22.1333 123.763 21.12C124.136 20.08 124.323 19.0267 124.323 17.96C124.323 16.44 123.989 15.0267 123.323 13.72C123.189 13.4533 123.123 13.1867 123.123 12.92C123.123 12.5733 123.283 12.2667 123.603 12C123.816 11.8667 124.229 11.5867 124.843 11.16C125.456 10.7333 125.843 10.4667 126.003 10.36C126.216 10.2267 126.416 10.16 126.603 10.16C127.029 10.16 127.349 10.36 127.563 10.76C128.843 13 129.483 15.4133 129.483 18C129.483 19.68 129.203 21.32 128.643 22.92C128.083 24.4933 127.256 25.9333 126.163 27.24C124.856 28.92 123.216 30.2133 121.243 31.12C119.296 32 117.256 32.44 115.123 32.44C113.443 32.44 111.816 32.16 110.243 31.6C108.669 31.0133 107.269 30.1733 106.043 29.08ZM138.23 29.08C136.577 27.6667 135.31 25.9867 134.43 24.04C133.55 22.0667 133.11 20.0267 133.11 17.92C133.11 16.2667 133.377 14.6533 133.91 13.08C134.47 11.48 135.297 10.0267 136.39 8.72C137.697 7.12 139.23 5.89333 140.99 5.04C142.75 4.16 144.603 3.66667 146.55 3.56H146.63C146.843 3.56 147.017 3.64 147.15 3.8C147.31 3.96 147.403 4.16 147.43 4.4V7.88C147.43 8.38666 147.15 8.66667 146.59 8.72C145.39 8.82667 144.243 9.17333 143.15 9.76C142.057 10.32 141.137 11.08 140.39 12.04C138.95 13.8 138.23 15.7867 138.23 18C138.23 19.3333 138.51 20.6267 139.07 21.88C139.63 23.1067 140.43 24.16 141.47 25.04C143.23 26.48 145.203 27.2 147.39 27.2C148.723 27.2 150.003 26.92 151.23 26.36C152.457 25.8 153.497 24.9867 154.35 23.92C155.07 23.0667 155.603 22.1333 155.95 21.12C156.323 20.08 156.51 19.0267 156.51 17.96C156.51 16.44 156.177 15.0267 155.51 13.72C155.377 13.4533 155.31 13.1867 155.31 12.92C155.31 12.5733 155.47 12.2667 155.79 12C156.003 11.8667 156.417 11.5867 157.03 11.16C157.643 10.7333 158.03 10.4667 158.19 10.36C158.403 10.2267 158.603 10.16 158.79 10.16C159.217 10.16 159.537 10.36 159.75 10.76C161.03 13 161.67 15.4133 161.67 18C161.67 19.68 161.39 21.32 160.83 22.92C160.27 24.4933 159.443 25.9333 158.35 27.24C157.043 28.92 155.403 30.2133 153.43 31.12C151.483 32 149.443 32.44 147.31 32.44C145.63 32.44 144.003 32.16 142.43 31.6C140.857 31.0133 139.457 30.1733 138.23 29.08ZM167.799 32C167.612 32 167.439 31.9333 167.279 31.8C167.146 31.64 167.079 31.4667 167.079 31.28V4.72C167.079 4.50666 167.146 4.33333 167.279 4.2C167.439 4.04 167.612 3.96 167.799 3.96H172.119C172.306 3.96 172.466 4.04 172.599 4.2C172.759 4.33333 172.839 4.50666 172.839 4.72V13.92L180.959 4.4C181.199 4.10666 181.492 3.96 181.839 3.96H187.559C187.852 3.96 188.026 4.01333 188.079 4.12C188.132 4.22667 188.119 4.33333 188.039 4.44L173.479 21.48C173.052 21.9867 172.839 22.6267 172.839 23.4V31.28C172.839 31.4667 172.772 31.64 172.639 31.8C172.506 31.9333 172.332 32 172.119 32H167.799ZM183.159 32C182.599 31.9733 182.186 31.9067 181.919 31.8C181.679 31.6667 181.479 31.48 181.319 31.24L177.079 25.2C176.892 24.9067 176.799 24.6667 176.799 24.48C176.799 24.24 176.906 23.9867 177.119 23.72C177.332 23.48 177.572 23.2 177.839 22.88C178.132 22.5333 178.412 22.2133 178.679 21.92L179.519 20.92C179.679 20.7067 179.866 20.6 180.079 20.6C180.319 20.6 180.519 20.72 180.679 20.96L187.879 31.16C187.932 31.2667 187.959 31.36 187.959 31.44C187.959 31.7867 187.719 31.9733 187.239 32H183.159Z" fill="white"/>
<path d="M119.517 42.14C119.844 42.14 120.124 42.28 120.357 42.56C120.59 42.7933 120.707 43.0967 120.707 43.47V89.67C120.707 90.0433 120.59 90.3467 120.357 90.58C120.124 90.8133 119.844 90.93 119.517 90.93H112.587C112.26 90.93 111.98 90.8133 111.747 90.58C111.514 90.3467 111.397 90.0433 111.397 89.67V61.95C111.397 61.53 111.304 61.32 111.117 61.32C110.977 61.32 110.767 61.4833 110.487 61.81C109.74 62.93 108.504 64.68 106.777 67.06C105.097 69.44 103.86 71.1667 103.067 72.24C102.6 72.8467 102.204 73.2433 101.877 73.43C101.597 73.6167 101.107 73.71 100.407 73.71H99.2169C98.3769 73.71 97.7935 73.64 97.4669 73.5C97.1869 73.36 96.8602 73.0567 96.4869 72.59L88.8569 61.88C88.6702 61.46 88.4602 61.25 88.2269 61.25C88.0402 61.25 87.9469 61.46 87.9469 61.88V70.56C87.9469 70.9333 87.8302 71.2367 87.5969 71.47C87.3635 71.7033 87.0835 71.82 86.7569 71.82H79.8969C79.5702 71.82 79.2669 71.7033 78.9869 71.47C78.7535 71.19 78.6369 70.8867 78.6369 70.56V43.47C78.6369 43.0967 78.7535 42.7933 78.9869 42.56C79.2669 42.28 79.5702 42.14 79.8969 42.14H86.8969C87.0369 42.14 87.2002 42.2333 87.3869 42.42C87.6202 42.56 87.7835 42.7233 87.8769 42.91L98.5169 60.48C98.5635 60.5733 98.6802 60.7133 98.8669 60.9C99.1002 61.0867 99.3802 61.18 99.7069 61.18H99.7769C100.104 61.18 100.36 61.0633 100.547 60.83C100.734 60.5967 100.85 60.4333 100.897 60.34L111.467 42.98C111.607 42.7467 111.747 42.56 111.887 42.42C112.027 42.2333 112.214 42.14 112.447 42.14H112.517H119.517ZM159.872 91C159.546 91 159.242 90.9067 158.962 90.72C158.682 90.4867 158.496 90.23 158.402 89.95L154.902 76.93C154.762 76.51 154.506 76.16 154.132 75.88C153.759 75.6 153.362 75.46 152.942 75.46H142.372C142.046 75.46 141.766 75.3667 141.532 75.18C141.346 74.9467 141.252 74.69 141.252 74.41V69.02C141.252 68.74 141.346 68.4833 141.532 68.25C141.766 68.0167 142.046 67.9 142.372 67.9H150.772C151.192 67.9 151.519 67.76 151.752 67.48C152.032 67.1533 152.102 66.78 151.962 66.36L148.042 52.08C147.949 51.7067 147.716 51.38 147.342 51.1C146.969 50.82 146.572 50.68 146.152 50.68H145.662C145.289 50.68 144.916 50.82 144.542 51.1C144.169 51.38 143.936 51.7067 143.842 52.08L141.252 61.46C141.159 61.74 140.972 61.95 140.692 62.09C140.459 62.23 140.179 62.2533 139.852 62.16L133.272 60.55C132.992 60.5033 132.759 60.34 132.572 60.06C132.432 59.78 132.409 59.5 132.502 59.22L136.912 43.05C137.006 42.77 137.192 42.5133 137.472 42.28C137.799 42.0467 138.102 41.93 138.382 41.93H153.432C153.712 41.93 154.016 42.0467 154.342 42.28C154.669 42.4667 154.879 42.7 154.972 42.98L167.852 90.02V90.16C167.852 90.72 167.572 91 167.012 91H159.872ZM179.818 91C179.444 91 179.118 90.8833 178.838 90.65C178.604 90.4167 178.488 90.1133 178.488 89.74V65.31C178.488 64.9367 178.604 64.6333 178.838 64.4C179.118 64.12 179.444 63.98 179.818 63.98H194.308C196.174 63.98 197.738 63.35 198.998 62.09C200.304 60.83 200.958 59.3133 200.958 57.54C200.958 55.72 200.304 54.18 198.998 52.92C197.738 51.66 196.174 51.03 194.308 51.03H188.428C187.914 51.03 187.471 51.2167 187.098 51.59C186.771 51.9167 186.608 52.3133 186.608 52.78V54.53C186.608 54.9967 186.444 55.4167 186.118 55.79C185.791 56.1167 185.371 56.28 184.858 56.28H180.238C179.771 56.28 179.351 56.1167 178.978 55.79C178.651 55.4167 178.488 54.9967 178.488 54.53V43.26C178.488 42.8867 178.604 42.5833 178.838 42.35C179.118 42.07 179.444 41.93 179.818 41.93H194.308C197.201 41.93 199.861 42.63 202.288 44.03C204.714 45.43 206.628 47.32 208.028 49.7C209.474 52.08 210.198 54.6933 210.198 57.54C210.198 59.9667 209.638 62.2533 208.518 64.4C207.444 66.5467 205.951 68.3433 204.038 69.79C203.758 69.9767 203.618 70.21 203.618 70.49C203.618 70.77 203.641 71.0033 203.688 71.19L211.808 89.32C211.994 89.6467 212.088 89.95 212.088 90.23C212.088 90.7433 211.761 91 211.108 91H205.368C204.854 91 204.458 90.9533 204.178 90.86C203.944 90.7667 203.734 90.5333 203.548 90.16L196.268 73.78C196.128 73.5 195.941 73.3133 195.708 73.22C195.474 73.1267 195.008 73.08 194.308 73.08H188.358C187.798 73.08 187.354 73.1733 187.028 73.36C186.748 73.5 186.608 73.8267 186.608 74.34V89.74C186.608 90.1133 186.468 90.4167 186.188 90.65C185.954 90.8833 185.651 91 185.278 91H179.818ZM223.823 91C223.496 91 223.193 90.8833 222.913 90.65C222.68 90.37 222.563 90.0667 222.563 89.74V43.26C222.563 42.8867 222.68 42.5833 222.913 42.35C223.193 42.07 223.496 41.93 223.823 41.93H231.383C231.71 41.93 231.99 42.07 232.223 42.35C232.503 42.5833 232.643 42.8867 232.643 43.26V59.36L246.853 42.7C247.273 42.1867 247.786 41.93 248.393 41.93H258.403C258.916 41.93 259.22 42.0233 259.313 42.21C259.406 42.3967 259.383 42.5833 259.243 42.77L233.763 72.59C233.016 73.4767 232.643 74.5967 232.643 75.95V89.74C232.643 90.0667 232.526 90.37 232.293 90.65C232.06 90.8833 231.756 91 231.383 91H223.823ZM250.703 91C249.723 90.9533 249 90.8367 248.533 90.65C248.113 90.4167 247.763 90.09 247.483 89.67L240.063 79.1C239.736 78.5867 239.573 78.1667 239.573 77.84C239.573 77.42 239.76 76.9767 240.133 76.51C240.506 76.09 240.926 75.6 241.393 75.04C241.906 74.4333 242.396 73.8733 242.863 73.36L244.333 71.61C244.613 71.2367 244.94 71.05 245.313 71.05C245.733 71.05 246.083 71.26 246.363 71.68L258.963 89.53C259.056 89.7167 259.103 89.88 259.103 90.02C259.103 90.6267 258.683 90.9533 257.843 91H250.703Z" fill="white"/>
<path fill-rule="evenodd" clip-rule="evenodd" d="M0 10.3332V83.667C0 87.7185 3.29297 91 7.35836 91H68.9826C71.5208 91 73.5819 88.9468 73.5819 86.4172C73.5819 83.8866 71.5208 81.8334 68.9826 81.8334H12.8769C10.853 81.8334 9.19799 80.1828 9.19799 78.1665C9.19799 76.1513 10.8532 74.5004 12.8769 74.5004H66.2232C70.2884 74.5004 73.5819 71.2179 73.5819 67.1663V10.3332C73.5819 6.28188 70.2884 3.0002 66.2232 3.0002H40.47V35.9824C40.47 36.4586 40.2868 36.9346 39.9363 37.3017C39.22 38.016 38.0408 38.016 37.3241 37.3017C36.8456 36.8059 29.4326 30.6649 29.4326 30.6649C29.4326 30.6649 22.0198 36.8059 21.5409 37.3017C20.8242 38.016 19.646 38.016 18.9289 37.3017C18.5796 36.9346 18.3954 36.4586 18.3954 35.9824V3H7.35836C3.29276 3 0 6.28188 0 10.3332Z" fill="white"/>
</svg>
